<svg xmlns="http://www.w3.org/2000/svg" width="32" height="32" viewBox="0 0 32 32" fill="none">
  <rect width="32" height="32" rx="16" fill="#1F1F1F"/>
  <path d="M19.3327 10C19.3327 9.63333 19.0327 9.33333 18.666 9.33333H16.666C16.2993 9.33333 15.9993 9.63333 15.9993 10C15.9993 10.3667 16.2993 10.6667 16.666 10.6667H18.666C19.0327 10.6667 19.3327 10.3667 19.3327 10ZM14.9993 10.6667C15.366 10.6667 15.666 10.3667 15.666 10C15.666 9.63333 15.366 9.33333 14.9993 9.33333C14.6327 9.33333 14.3327 9.63333 14.3327 10C14.3327 10.3667 14.6327 10.6667 14.9993 10.6667ZM16.9327 22.6667H16.5993C16.2327 22.6667 15.9327 22.3667 15.9327 22C15.9327 21.6333 16.2327 21.3333 16.5993 21.3333H16.9327C20.2327 21.3333 22.9993 18.5667 22.9993 15.2667V14.9333C22.9993 14.5667 23.2993 14.2667 23.666 14.2667C24.0327 14.2667 24.3327 14.5667 24.3327 14.9333V15.2667C24.3327 19.3333 21.0327 22.6667 16.9327 22.6667ZM25.5327 16.6C25.166 16.6 24.866 16.3 24.866 15.9333C24.866 12.3 22.0327 9.46667 18.3993 9.46667C18.0327 9.46667 17.7327 9.16667 17.7327 8.8C17.7327 8.43333 18.0327 8.13333 18.3993 8.13333C22.7993 8.13333 26.1993 11.5333 26.1993 15.9333C26.1993 16.3 25.8993 16.6 25.5327 16.6ZM17.7993 12.2667C17.7993 12.6333 17.4993 12.9333 17.1327 12.9333C16.7993 12.9333 16.5327 12.7333 16.5327 12.5333V12.1C16.5327 11.7333 16.2327 11.4333 15.866 11.4333H11.866C11.4993 11.4333 11.1993 11.7333 11.1993 12.1V19.5333C11.1993 19.9 11.4993 20.2 11.866 20.2H15.866C16.2327 20.2 16.5327 19.9 16.5327 19.5333V19.1C16.5327 18.9 16.7993 18.7 17.1327 18.7C17.4993 18.7 17.7993 19 17.7993 19.3667V19.5333C17.7993 20.6333 16.966 21.4667 15.866 21.4667H11.866C10.766 21.4667 9.93268 20.6333 9.93268 19.5333V12.1C9.93268 11 10.766 10.1667 11.866 10.1667H15.866C16.966 10.1667 17.7993 11 17.7993 12.1V12.2667ZM13.866 19H13.166C12.7993 19 12.4993 18.7 12.4993 18.3333C12.4993 17.9667 12.7993 17.6667 13.166 17.6667H13.866C14.2327 17.6667 14.5327 17.9667 14.5327 18.3333C14.5327 18.7 14.2327 19 13.866 19ZM13.866 16.0667H13.166C12.7993 16.0667 12.4993 15.7667 12.4993 15.4C12.4993 15.0333 12.7993 14.7333 13.166 14.7333H13.866C14.2327 14.7333 14.5327 15.0333 14.5327 15.4C14.5327 15.7667 14.2327 16.0667 13.866 16.0667ZM13.866 13.1333H13.166C12.7993 13.1333 12.4993 12.8333 12.4993 12.4667C12.4993 12.1 12.7993 11.8 13.166 11.8H13.866C14.2327 11.8 14.5327 12.1 14.5327 12.4667C14.5327 12.8333 14.2327 13.1333 13.866 13.1333Z" fill="white"/>
</svg>
