<svg xmlns="http://www.w3.org/2000/svg" width="32" height="32" viewBox="0 0 32 32" fill="none">
  <rect width="32" height="32" rx="16" fill="#1F1F1F"/>
  <path d="M16 12.6667C15.4696 12.6667 14.9609 12.8774 14.5858 13.2525C14.2107 13.6276 14 14.1363 14 14.6667V17.3333C14 17.8638 14.2107 18.3725 14.5858 18.7475C14.9609 19.1226 15.4696 19.3333 16 19.3333C16.5304 19.3333 17.0391 19.1226 17.4142 18.7475C17.7893 18.3725 18 17.8638 18 17.3333V14.6667C18 14.1363 17.7893 13.6276 17.4142 13.2525C17.0391 12.8774 16.5304 12.6667 16 12.6667ZM13 16.6667C13 16.3 13.3 16 13.6667 16C14.0333 16 14.3333 16.3 14.3333 16.6667V17.3333C14.3333 18.133 14.6513 18.8997 15.2171 19.4656C15.783 20.0314 16.5507 20.3493 17.3503 20.3493C18.15 20.3493 18.9177 20.0314 19.4835 19.4656C20.0493 18.8997 20.3673 18.133 20.3673 17.3333V16.6667C20.3673 16.3 20.6667 16 21.0333 16C21.4 16 21.7 16.3 21.7 16.6667V17.3333C21.7 18.4333 21.2673 19.4667 20.5333 20.2333C19.9 20.9 19.0333 21.3 18.0667 21.3667V23H20C20.3667 23 20.6667 23.3 20.6667 23.6667C20.6667 24.0333 20.3667 24.3333 20 24.3333H12.6667C12.3 24.3333 12 24.0333 12 23.6667C12 23.3 12.3 23 12.6667 23H14.6V21.3667C13.6333 21.3 12.7667 20.9 12.1333 20.2333C11.4 19.4667 10.9667 18.4333 10.9667 17.3333V16.6667C10.9667 16.4899 11.0175 16.317 11.1145 16.1667C11.2115 16.0163 11.3517 15.8944 11.5173 15.8143C11.6829 15.7343 11.8677 15.6992 12.0519 15.7122C12.2361 15.7252 12.413 15.7858 12.5639 15.8879C12.7147 15.99 12.8342 16.1303 12.9117 16.2952C12.9892 16.4602 13.0222 16.6436 13.007 16.8262C12.9919 17.0088 12.9292 17.1837 12.8248 17.3316C12.7204 17.4795 12.5783 17.5955 12.4133 17.6667H13V16.6667Z" fill="white"/>
</svg>
